<svg width="100.6" height="72.001" viewBox="0 0 100.6 72.001" xmlns="http://www.w3.org/2000/svg"><g id="svgGroup" stroke-linecap="round" fill-rule="evenodd" font-size="9pt" stroke="#f33237" stroke-width="0.5mm" fill="#f33237" style="stroke:#f33237;stroke-width:0.5mm;fill:#f33237"><path d="M 62.3 72.001 Q 55.2 72.001 49.05 69.601 Q 42.9 67.201 38.25 62.801 Q 33.6 58.401 30.95 52.301 A 32.069 32.069 0 0 1 28.51 42.809 A 39.371 39.371 0 0 1 28.3 38.701 A 37.521 37.521 0 0 1 29.888 28.055 A 44.169 44.169 0 0 1 30.8 25.301 Q 33.3 18.501 38.15 12.801 A 36.747 36.747 0 0 1 48.871 4.235 A 42.579 42.579 0 0 1 50.2 3.551 A 34.221 34.221 0 0 1 60.823 0.383 A 43.823 43.823 0 0 1 66.7 0.001 Q 73.7 0.001 79.9 2.401 Q 86.1 4.801 90.75 9.251 Q 95.4 13.701 98 19.801 A 32.559 32.559 0 0 1 100.393 29.279 A 40.111 40.111 0 0 1 100.6 33.401 Q 100.6 40.001 98.1 46.751 Q 95.6 53.501 90.75 59.251 A 36.295 36.295 0 0 1 79.195 68.28 A 41.541 41.541 0 0 1 78.75 68.501 A 34.062 34.062 0 0 1 68.473 71.582 A 44.073 44.073 0 0 1 62.3 72.001 Z M 62.3 68.701 Q 70.7 68.701 77.2 65.501 Q 83.7 62.301 88.15 57.101 Q 92.6 51.901 94.85 45.701 A 37.366 37.366 0 0 0 96.858 37.46 A 32.74 32.74 0 0 0 97.1 33.501 Q 97.1 27.301 94.8 21.851 Q 92.5 16.401 88.4 12.201 Q 84.3 8.001 78.7 5.651 A 30.612 30.612 0 0 0 67.811 3.321 A 35.279 35.279 0 0 0 66.6 3.301 A 38.301 38.301 0 0 0 58.847 4.052 A 29.569 29.569 0 0 0 51.65 6.501 Q 45.2 9.701 40.75 14.951 Q 36.3 20.201 34.05 26.401 A 37.366 37.366 0 0 0 32.042 34.642 A 32.74 32.74 0 0 0 31.8 38.601 Q 31.8 44.701 34.05 50.151 Q 36.3 55.601 40.4 59.801 Q 44.5 64.001 50.1 66.351 A 30.552 30.552 0 0 0 60.262 68.643 A 35.82 35.82 0 0 0 62.3 68.701 Z M 0 71.301 L 4.7 32.901 L 8 32.901 L 3.3 71.301 L 0 71.301 Z M 67.5 71.301 L 74.7 68.501 L 98.1 67.901 L 97.7 71.301 L 67.5 71.301 Z M 6.114 18.72 A 2.548 2.548 0 0 0 5.3 20.601 A 2.336 2.336 0 0 0 5.288 20.833 Q 5.288 21.331 5.509 21.777 A 2.609 2.609 0 0 0 5.95 22.401 Q 6.7 23.201 7.8 23.301 Q 9 23.301 10 22.451 A 3.554 3.554 0 0 0 10.186 22.281 A 2.548 2.548 0 0 0 11 20.401 A 2.812 2.812 0 0 0 11.012 20.146 A 2.33 2.33 0 0 0 10.35 18.501 Q 9.6 17.701 8.5 17.701 Q 7.3 17.701 6.3 18.551 A 3.554 3.554 0 0 0 6.114 18.72 Z" vector-effect="non-scaling-stroke"/></g></svg>